<svg width="39" height="39" viewBox="0 0 39 39" fill="none" xmlns="http://www.w3.org/2000/svg">
<g clip-path="url(#clip0)">
<path d="M19.5 0.0138245C8.73031 0.0138245 0 8.74414 0 19.5138C0 30.2835 8.73031 39.0146 19.5 39.0146C30.2697 39.0146 39 30.2835 39 19.5138C39 8.74414 30.2697 0.0138245 19.5 0.0138245ZM19.5 35.8662C10.5251 35.8662 3.25 28.5903 3.25 19.6154C3.25 10.6405 10.5251 3.36539 19.5 3.36539C28.4749 3.36539 35.75 10.6405 35.75 19.6154C35.75 28.5903 28.4749 35.8662 19.5 35.8662Z" fill="#231F20"/>
<path d="M18.5104 25.9553C17.1104 25.9553 16.4109 26.6744 16.4109 28.1117C16.4109 28.8064 16.5921 29.3467 16.9536 29.7318C17.3152 30.1169 17.8344 30.3111 18.5104 30.3111C19.1872 30.3111 19.7072 30.1129 20.0736 29.718C20.4401 29.3231 20.6245 28.7877 20.6245 28.1117C20.6245 27.4259 20.4433 26.8946 20.0818 26.5184C19.7202 26.1422 19.1961 25.9553 18.5104 25.9553Z" fill="#231F20"/>
<path d="M23.8379 10.0872C22.7427 9.17314 21.2623 8.7157 19.3968 8.7157C17.5419 8.7157 15.7869 9.10001 14.1269 9.85807C13.1958 10.2773 13.6134 11.2279 13.6151 11.2328L13.9872 12.012C13.9872 12.012 14.4268 12.7571 15.3741 12.3906C15.3839 12.3874 15.3871 12.389 15.3961 12.3849C15.8056 12.2135 16.2199 12.0543 16.6408 11.9137C17.4119 11.6569 18.2496 11.5278 19.1547 11.5278C20.1541 11.5278 20.9203 11.7423 21.4541 12.1704C21.9879 12.5986 22.2536 13.2129 22.2536 14.0132C22.2536 14.6989 22.0886 15.2888 21.7604 15.7844C21.4321 16.2801 20.7017 16.9748 19.5691 17.8693C18.6176 18.6119 17.9506 19.331 17.5695 20.0257C17.1884 20.7212 16.9983 21.593 16.9983 22.6403C16.9618 23.4024 17.9327 23.5544 17.9327 23.5544H18.5193C18.5193 23.5544 19.6357 23.5609 19.8063 22.5989C19.8088 22.5859 19.8128 22.5818 19.8153 22.5688C19.8543 21.9594 19.994 21.4549 20.2467 21.0689C20.5465 20.6115 21.1404 20.0354 22.0253 19.3399C23.0628 18.5307 23.7933 17.8734 24.2166 17.3688C24.6399 16.8643 24.9576 16.3337 25.1672 15.7763C25.3768 15.2189 25.4816 14.5836 25.4816 13.8694C25.48 12.2631 24.9332 11.0013 23.8379 10.0872Z" fill="#231F20"/>
</g>
<defs>
<clipPath id="clip0">
<rect width="39" height="39" fill="white"/>
</clipPath>
</defs>
</svg>
