<svg width="30" height="45" viewBox="0 0 30 45" fill="none" xmlns="http://www.w3.org/2000/svg">
<path d="M28.9537 9.88743C28.9538 9.88731 28.9539 9.88719 28.954 9.88713L20.9746 0.894705C20.7872 0.683454 20.5282 0.552734 20.2421 0.552734H1.03566C0.463664 0.552734 0 1.07526 0 1.71987V43.3368C0 43.9814 0.463664 44.5039 1.03566 44.5039H28.2217C28.7937 44.5039 29.2573 43.9814 29.2573 43.3368V10.7124C29.2573 10.4139 29.1499 10.1102 28.9537 9.88743ZM27.186 42.1696H2.07132V2.88701H19.8132L25.7214 9.54522H21.2778V7.10661C21.2778 6.462 20.8141 5.93947 20.2421 5.93947C19.6701 5.93947 19.2065 6.462 19.2065 7.10661V10.7124C19.2065 11.357 19.6701 11.8795 20.2421 11.8795C20.2421 11.8795 25.0271 11.8795 27.186 11.8795V42.1696Z" fill="black"/>
<path d="M9.20267 12.2818L7.13892 14.6077L6.84392 14.2752C6.43944 13.8194 5.78377 13.8194 5.37935 14.2752C4.97487 14.731 4.97487 15.47 5.37935 15.9258L6.40672 17.0836C6.6009 17.3025 6.86437 17.4255 7.13903 17.4255C7.41374 17.4255 7.67715 17.3025 7.87139 17.0836L10.6675 13.9324C11.0719 13.4765 11.0719 12.7375 10.6674 12.2818C10.2628 11.826 9.6071 11.826 9.20267 12.2818Z" fill="black"/>
<path d="M22.8016 17.4255H23.1457C23.7177 17.4255 24.1814 16.9029 24.1814 16.2583C24.1814 15.6137 23.7177 15.0911 23.1457 15.0911H22.8016C22.2295 15.0911 21.7659 15.6137 21.7659 16.2583C21.7659 16.9029 22.2295 17.4255 22.8016 17.4255Z" fill="black"/>
<path d="M12.94 15.0911C12.368 15.0911 11.9043 15.6137 11.9043 16.2583C11.9043 16.9029 12.368 17.4255 12.94 17.4255H19.6515C20.2235 17.4255 20.6871 16.9029 20.6871 16.2583C20.6871 15.6137 20.2235 15.0911 19.6515 15.0911H12.94Z" fill="black"/>
<path d="M22.8016 24.603H23.1457C23.7177 24.603 24.1814 24.0805 24.1814 23.4359C24.1814 22.7913 23.7177 22.2687 23.1457 22.2687H22.8016C22.2295 22.2687 21.7659 22.7913 21.7659 23.4359C21.7659 24.0805 22.2295 24.603 22.8016 24.603Z" fill="black"/>
<path d="M19.6515 22.2687H12.94C12.368 22.2687 11.9043 22.7913 11.9043 23.4359C11.9043 24.0805 12.368 24.603 12.94 24.603H19.6515C20.2235 24.603 20.6871 24.0805 20.6871 23.4359C20.6871 22.7913 20.2235 22.2687 19.6515 22.2687Z" fill="black"/>
<path d="M22.8016 31.7806H23.1457C23.7177 31.7806 24.1814 31.2581 24.1814 30.6135C24.1814 29.9688 23.7177 29.4463 23.1457 29.4463H22.8016C22.2295 29.4463 21.7659 29.9688 21.7659 30.6135C21.7659 31.2581 22.2295 31.7806 22.8016 31.7806Z" fill="black"/>
<path d="M19.6515 29.4463H12.94C12.368 29.4463 11.9043 29.9688 11.9043 30.6135C11.9043 31.2581 12.368 31.7806 12.94 31.7806H19.6515C20.2235 31.7806 20.6871 31.2581 20.6871 30.6135C20.6871 29.9688 20.2235 29.4463 19.6515 29.4463Z" fill="black"/>
<path d="M22.8016 38.9582H23.1457C23.7177 38.9582 24.1814 38.4357 24.1814 37.7911C24.1814 37.1465 23.7177 36.624 23.1457 36.624H22.8016C22.2295 36.624 21.7659 37.1465 21.7659 37.7911C21.7659 38.4357 22.2295 38.9582 22.8016 38.9582Z" fill="black"/>
<path d="M19.6515 36.624H12.94C12.368 36.624 11.9043 37.1465 11.9043 37.7911C11.9043 38.4357 12.368 38.9582 12.94 38.9582H19.6515C20.2235 38.9582 20.6871 38.4357 20.6871 37.7911C20.6871 37.1465 20.2235 36.624 19.6515 36.624Z" fill="black"/>
<path d="M7.13891 24.603C7.41357 24.603 7.67704 24.4801 7.87122 24.2612L10.6673 21.1101C11.0718 20.6543 11.0718 19.9153 10.6673 19.4595C10.2628 19.0038 9.60714 19.0037 9.20271 19.4595L7.13896 21.7853L6.84396 21.4528C6.43953 20.997 5.78376 20.9969 5.37933 21.4528C4.97491 21.9086 4.97486 22.6476 5.37928 23.1033L6.40665 24.2612C6.60084 24.48 6.86426 24.603 7.13891 24.603Z" fill="black"/>
<path d="M6.04507 29.0379L5.37936 29.7881C4.97494 30.244 4.97494 30.983 5.37941 31.4387C5.58162 31.6666 5.84664 31.7805 6.11172 31.7805C6.37679 31.7805 6.64181 31.6666 6.84407 31.4387L7.50973 30.6885L8.17545 31.4387C8.37761 31.6666 8.64268 31.7805 8.90775 31.7805C9.17283 31.7805 9.43785 31.6666 9.64006 31.4387C10.0445 30.9828 10.0445 30.2439 9.64006 29.7881L8.9744 29.0379L9.64011 28.2876C10.0445 27.8317 10.0445 27.0928 9.64006 26.637C9.23559 26.1812 8.57987 26.1812 8.17545 26.637L7.50973 27.3873L6.84397 26.637C6.4395 26.1812 5.78383 26.1812 5.37941 26.637C4.97499 27.0929 4.97494 27.8318 5.37941 28.2876L6.04507 29.0379Z" fill="black"/>
<path d="M9.20267 33.8145L7.13892 36.1403L6.84392 35.8078C6.43944 35.352 5.78377 35.352 5.37935 35.8078C4.97487 36.2636 4.97487 37.0026 5.37935 37.4584L6.40672 38.6162C6.6009 38.8351 6.86437 38.958 7.13903 38.958C7.41374 38.958 7.67715 38.8351 7.87139 38.6162L10.6675 35.465C11.0719 35.0092 11.0719 34.2702 10.6674 33.8144C10.2628 33.3587 9.6071 33.3587 9.20267 33.8145Z" fill="black"/>
</svg>
