<svg width="41" height="40" viewBox="0 0 41 40" fill="none" xmlns="http://www.w3.org/2000/svg">
<path d="M20.6599 9.81174C15.2262 9.81174 10.724 14.2676 10.724 19.8179C10.724 25.3682 15.1486 29.8241 20.6599 29.8241C26.1712 29.8241 30.5958 25.2901 30.5958 19.8179C30.5958 14.3458 26.0936 9.81174 20.6599 9.81174ZM20.6599 26.2282C17.1668 26.2282 14.2947 23.3357 14.2947 19.8179C14.2947 16.3001 17.1668 13.4077 20.6599 13.4077C24.153 13.4077 27.0251 16.3001 27.0251 19.8179C27.0251 23.3357 24.153 26.2282 20.6599 26.2282Z" fill="black"/>
<path d="M30.9839 11.8442C32.2271 11.8442 33.235 10.8293 33.235 9.57721C33.235 8.32516 32.2271 7.31018 30.9839 7.31018C29.7406 7.31018 28.7328 8.32516 28.7328 9.57721C28.7328 10.8293 29.7406 11.8442 30.9839 11.8442Z" fill="black"/>
<path d="M36.8057 3.7142C34.7875 1.60352 31.9154 0.509094 28.6552 0.509094H12.6646C5.91126 0.509094 1.40906 5.04315 1.40906 11.8442V27.8698C1.40906 31.2312 2.4958 34.1237 4.66928 36.2343C6.76513 38.2668 9.5596 39.2831 12.7422 39.2831H28.5775C31.9154 39.2831 34.7099 38.1887 36.7281 36.2343C38.8239 34.2018 39.9107 31.3094 39.9107 27.948V11.8442C39.9107 8.56095 38.8239 5.74671 36.8057 3.7142ZM36.4952 27.948C36.4952 30.3713 35.6413 32.3257 34.2441 33.6546C32.8469 34.9836 30.9063 35.6871 28.5775 35.6871H12.7422C10.4135 35.6871 8.47286 34.9836 7.07563 33.6546C5.67839 32.2475 4.97977 30.2932 4.97977 27.8698V11.8442C4.97977 9.49903 5.67839 7.5447 7.07563 6.13758C8.39524 4.80863 10.4135 4.10507 12.7422 4.10507H28.7328C31.0615 4.10507 33.0021 4.80863 34.3994 6.21575C35.719 7.62287 36.4952 9.57721 36.4952 11.8442V27.948Z" fill="black"/>
</svg>
