<svg width="36" height="36" viewBox="0 0 36 36" fill="none" xmlns="http://www.w3.org/2000/svg">
<path d="M24.2205 13.125L14.4705 21.75C14.3455 21.875 14.3455 22 14.3455 22.125L13.9705 25.5C13.9705 25.625 13.8455 25.625 13.7205 25.5L12.2205 20.5C12.0955 20.25 12.2205 20 12.4705 19.875L23.8455 12.75C24.2205 12.625 24.4705 13 24.2205 13.125Z" fill="#222A30"/>
<path d="M17.9705 0.75C13.2205 0.75 8.84546 2.625 5.72046 5.75C2.59546 8.875 0.595459 13.25 0.595459 18C0.595459 22.75 2.47046 27.125 5.72046 30.25C8.84546 33.375 13.2205 35.25 17.9705 35.25C22.7205 35.25 27.0955 33.375 30.2205 30.25C33.3455 27.125 35.3455 22.75 35.3455 18C35.2205 8.5 27.4705 0.75 17.9705 0.75ZM28.2205 10.625L24.7205 27.625C24.5955 28.375 23.5955 28.75 22.9705 28.25L17.5955 24.25L14.8455 27C14.3455 27.5 13.5955 27.25 13.3455 26.625L11.3455 20.375L6.09546 18.75C5.34546 18.5 5.34546 17.625 6.09546 17.375L26.9705 9.25C27.5955 9.125 28.4705 9.75 28.2205 10.625Z" fill="#222A30"/>
</svg>
