<svg width="31" height="30" viewBox="0 0 31 30" fill="none" xmlns="http://www.w3.org/2000/svg">
<path d="M21.1529 10.7199C21.1529 13.679 18.7422 16.0797 15.7685 16.0797C12.7944 16.0797 10.3841 13.679 10.3841 10.7199C10.3841 7.75993 12.7948 5.36005 15.7685 5.36005C18.7429 5.35983 21.1529 7.75972 21.1529 10.7199ZM26.7395 10.7199C26.7395 4.79934 21.9183 0 15.9705 0C10.023 0 5.20148 4.79934 5.20148 10.7199C5.20148 13.323 6.13451 15.7097 7.68497 17.5663L15.9798 29.4795L24.3959 17.3925C24.6981 17.0159 24.975 16.619 25.2248 16.2018L25.3099 16.0803H25.2959C26.2124 14.5026 26.7395 12.6734 26.7395 10.7199Z" fill="black"/>
</svg>
