<svg width="43" height="42" viewBox="0 0 43 42" fill="none" xmlns="http://www.w3.org/2000/svg">
<path d="M35.0872 27.5215C33.8896 26.291 30.4853 23.9859 28.254 23.9859C27.7372 23.9859 27.286 24.1008 26.9169 24.3387C25.8259 25.0359 24.9564 25.5773 24.538 25.5773C24.3083 25.5773 24.0622 25.3723 23.5208 24.9047L23.4306 24.8227C21.9294 23.5184 21.6095 23.182 21.0271 22.575L20.8794 22.4191C20.7728 22.3125 20.6825 22.2141 20.5923 22.1238C20.0837 21.5988 19.7146 21.2215 18.4103 19.7449L18.3528 19.6793C17.7294 18.9738 17.3192 18.5145 17.2946 18.1781C17.27 17.85 17.5571 17.3168 18.2872 16.3242C19.1732 15.1266 19.206 13.65 18.3939 11.9356C17.7458 10.582 16.6876 9.28594 15.7524 8.14571L15.6704 8.04727C14.8665 7.0629 13.9314 6.57071 12.8896 6.57071C11.7329 6.57071 10.7731 7.19415 10.2646 7.52227C10.2235 7.54688 10.1825 7.57969 10.1415 7.6043C9.00127 8.32618 8.17276 9.31876 7.86104 10.3277C7.39346 11.8453 7.08174 13.8141 9.3212 17.9074C11.2571 21.4512 13.0126 23.8301 15.8017 26.693C18.4267 29.3836 19.5915 30.2531 22.2001 32.1398C25.104 34.2398 27.8931 35.4457 29.8454 35.4457C31.6583 35.4457 33.0857 35.4457 35.12 32.993C37.2528 30.4172 36.3669 28.8422 35.0872 27.5215Z" fill="black"/>
</svg>
